<?xml version="1.0" standalone="no"?>
<!DOCTYPE svg PUBLIC "-//W3C//DTD SVG 20010904//EN"
 "http://www.w3.org/TR/2001/REC-SVG-20010904/DTD/svg10.dtd">
<svg version="1.0" xmlns="http://www.w3.org/2000/svg"
 width="1200.000000pt" height="1200.000000pt" viewBox="0 0 1200.000000 1200.000000"
 preserveAspectRatio="xMidYMid meet">
<metadata>
Created by potrace 1.11, written by Peter Selinger 2001-2013
</metadata>
<g transform="translate(0.000000,1200.000000) scale(0.100000,-0.100000)"
fill="#000000" stroke="none">
<path d="M0 6000 l0 -6000 6000 0 6000 0 0 6000 0 6000 -6000 0 -6000 0 0
-6000z m6660 1629 c0 -816 1 -871 17 -865 44 17 1627 535 1628 533 9 -13 404
-1241 401 -1244 -2 -3 -370 -124 -818 -270 -447 -145 -816 -268 -820 -271 -4
-4 220 -320 498 -702 277 -382 503 -698 502 -702 -4 -12 -1042 -766 -1049
-762 -3 2 -233 316 -510 698 -277 383 -506 695 -509 695 -3 0 -232 -312 -509
-695 -277 -382 -507 -696 -510 -698 -7 -4 -1045 750 -1049 762 -1 4 225 320
502 702 278 382 502 698 498 702 -4 3 -373 126 -820 271 -448 146 -816 267
-818 270 -3 2 86 279 198 616 135 409 207 611 216 611 11 0 1562 -495 1617
-516 13 -6 15 85 15 865 l0 871 660 0 660 0 0 -871z"/>
</g>
</svg>
